<svg width="68" height="16" viewBox="0 0 68 16" fill="none" xmlns="http://www.w3.org/2000/svg">
<path fill-rule="evenodd" clip-rule="evenodd" d="M62.4167 3.08466C63.7974 3.08466 64.9167 4.20394 64.9167 5.58466V11.0847C64.9167 12.4654 63.7974 13.5847 62.4167 13.5847H45.4167C44.036 13.5847 42.9167 12.4654 42.9167 11.0847V5.58466C42.9167 4.20394 44.036 3.08466 45.4167 3.08466H62.4167ZM45.9167 4.08466C44.8121 4.08466 43.9167 4.98009 43.9167 6.08466V10.5847C43.9167 11.6892 44.8121 12.5847 45.9167 12.5847H61.9167C63.0213 12.5847 63.9167 11.6892 63.9167 10.5847V6.08466C63.9167 4.98009 63.0213 4.08466 61.9167 4.08466H45.9167Z" fill="currentColor"/>
<path d="M65.9167 6.58661C66.7789 6.80876 67.4165 7.58964 67.4167 8.52118C67.4167 9.45285 66.7789 10.2335 65.9167 10.4557V6.58661Z" fill="currentColor"/>
<path d="M44.9167 6.08466C44.9167 5.53237 45.3644 5.08466 45.9167 5.08466H61.9167C62.469 5.08466 62.9167 5.53237 62.9167 6.08466V10.5847C62.9167 11.1369 62.469 11.5847 61.9167 11.5847H45.9167C45.3644 11.5847 44.9167 11.1369 44.9167 10.5847V6.08466Z" fill="currentColor"/>
<path fill-rule="evenodd" clip-rule="evenodd" d="M30.247 4.69267C32.4629 4.69277 34.5941 5.54421 36.2 7.071C36.321 7.18888 36.5142 7.18739 36.6334 7.06767L37.7894 5.901C37.8497 5.84028 37.8833 5.75803 37.8828 5.67245C37.8823 5.58687 37.8477 5.50502 37.7867 5.445C33.5716 1.40546 26.9218 1.40546 22.7067 5.445C22.6456 5.50497 22.611 5.5868 22.6104 5.67238C22.6099 5.75796 22.6434 5.84024 22.7037 5.901L23.86 7.06767C23.979 7.18757 24.1725 7.18906 24.2934 7.071C25.8995 5.54411 28.0309 4.69267 30.247 4.69267V4.69267ZM30.247 8.48834C31.4645 8.48826 32.6385 8.9408 33.541 9.758C33.6631 9.87399 33.8554 9.87147 33.9744 9.75234L35.129 8.58567C35.1898 8.52448 35.2236 8.44146 35.2227 8.3552C35.2218 8.26893 35.1864 8.18662 35.1244 8.12667C32.3762 5.57029 28.1202 5.57029 25.372 8.12667C25.3099 8.18662 25.2745 8.26897 25.2737 8.35526C25.2729 8.44156 25.3068 8.52456 25.3677 8.58567L26.522 9.75234C26.641 9.87147 26.8333 9.87399 26.9554 9.758C27.8572 8.94134 29.0303 8.48884 30.247 8.48834V8.48834ZM32.466 11.2727C32.5278 11.2121 32.5618 11.1287 32.56 11.0422C32.5582 10.9556 32.5209 10.8737 32.4567 10.8157C31.1811 9.73679 29.3129 9.73679 28.0374 10.8157C27.9731 10.8737 27.9357 10.9556 27.9339 11.0421C27.932 11.1286 27.966 11.212 28.0277 11.2727L30.0254 13.2883C30.0839 13.3476 30.1637 13.3809 30.247 13.3809C30.3303 13.3809 30.4101 13.3476 30.4687 13.2883L32.466 11.2727Z" fill="currentColor"/>
<path fill-rule="evenodd" clip-rule="evenodd" d="M1.58331 9.41798H2.58331C3.1356 9.41798 3.58331 9.86569 3.58331 10.418V12.418C3.58331 12.9703 3.1356 13.418 2.58331 13.418H1.58331C1.03103 13.418 0.583313 12.9703 0.583313 12.418V10.418C0.583313 9.86569 1.03103 9.41798 1.58331 9.41798V9.41798ZM6.24998 7.41798H7.24998C7.80226 7.41798 8.24998 7.86569 8.24998 8.41798V12.418C8.24998 12.9703 7.80226 13.418 7.24998 13.418H6.24998C5.69769 13.418 5.24998 12.9703 5.24998 12.418V8.41798C5.24998 7.86569 5.69769 7.41798 6.24998 7.41798ZM10.9166 5.08465H11.9166C12.4689 5.08465 12.9166 5.53236 12.9166 6.08465V12.418C12.9166 12.9703 12.4689 13.418 11.9166 13.418H10.9166C10.3644 13.418 9.91665 12.9703 9.91665 12.418V6.08465C9.91665 5.53236 10.3644 5.08465 10.9166 5.08465ZM15.5833 2.75131H16.5833C17.1356 2.75131 17.5833 3.19903 17.5833 3.75131V12.418C17.5833 12.9703 17.1356 13.418 16.5833 13.418H15.5833C15.031 13.418 14.5833 12.9703 14.5833 12.418V3.75131C14.5833 3.19903 15.031 2.75131 15.5833 2.75131V2.75131Z" fill="currentColor"/>
</svg>
