<svg width="27" height="16" viewBox="0 0 27 16" fill="none" xmlns="http://www.w3.org/2000/svg">
<path d="M26.9024 7.16602V8.79297C26.9024 9.57227 26.8249 10.2376 26.67 10.7891C26.5196 11.3359 26.3009 11.7803 26.0138 12.1221C25.7266 12.4639 25.3826 12.7145 24.9815 12.874C24.585 13.0335 24.1407 13.1133 23.6485 13.1133C23.2566 13.1133 22.892 13.0632 22.5548 12.9629C22.2221 12.8626 21.9213 12.7054 21.6524 12.4912C21.3835 12.277 21.1534 12.0013 20.962 11.6641C20.7751 11.3223 20.6293 10.9144 20.5245 10.4404C20.4242 9.96647 20.3741 9.41732 20.3741 8.79297V7.16602C20.3741 6.38216 20.4516 5.72135 20.6065 5.18359C20.7615 4.64128 20.9825 4.2015 21.2696 3.86426C21.5567 3.52246 21.8985 3.27409 22.295 3.11914C22.696 2.96419 23.1427 2.88672 23.6348 2.88672C24.0313 2.88672 24.3959 2.93685 24.7286 3.03711C25.0658 3.13281 25.3666 3.28548 25.6309 3.49512C25.8998 3.70475 26.1277 3.97819 26.3145 4.31543C26.5059 4.64811 26.6518 5.05143 26.752 5.52539C26.8523 5.99479 26.9024 6.54167 26.9024 7.16602ZM25.255 9.02539V6.91992C25.255 6.52344 25.2322 6.1748 25.1866 5.87402C25.141 5.56868 25.0727 5.3112 24.9815 5.10156C24.8949 4.88737 24.7856 4.71419 24.6534 4.58203C24.5212 4.44531 24.3708 4.34733 24.2022 4.28809C24.0336 4.22428 23.8445 4.19238 23.6348 4.19238C23.3796 4.19238 23.1518 4.24251 22.9513 4.34277C22.7507 4.43848 22.5821 4.59342 22.4454 4.80762C22.3087 5.02181 22.2039 5.30436 22.1309 5.65527C22.0626 6.00163 22.0284 6.42318 22.0284 6.91992V9.02539C22.0284 9.42643 22.0512 9.77962 22.0968 10.085C22.1423 10.3903 22.2107 10.6523 22.3018 10.8711C22.393 11.0853 22.5024 11.263 22.63 11.4043C22.7621 11.541 22.9125 11.6413 23.0811 11.7051C23.2543 11.7689 23.4434 11.8008 23.6485 11.8008C23.9083 11.8008 24.1384 11.7507 24.3389 11.6504C24.5395 11.5501 24.7081 11.3906 24.8448 11.1719C24.9815 10.9486 25.0841 10.6592 25.1524 10.3037C25.2208 9.94824 25.255 9.52214 25.255 9.02539Z" fill="currentColor"/>
<path fill-rule="evenodd" clip-rule="evenodd" d="M1.44238 11.6777H1.5791C2.20801 11.6777 2.7321 11.5957 3.15137 11.4316C3.5752 11.263 3.91243 11.0306 4.16309 10.7344C4.41374 10.4382 4.59375 10.0895 4.70312 9.68848C4.78057 9.40451 4.8306 9.10341 4.85321 8.78517C4.59988 9.06425 4.30126 9.28907 3.95801 9.45605C3.62533 9.62012 3.26302 9.70215 2.87109 9.70215C2.39714 9.70215 1.97786 9.61328 1.61328 9.43555C1.25326 9.25326 0.952474 9.00716 0.710938 8.69727C0.473958 8.38737 0.296224 8.0319 0.177734 7.63086C0.0592448 7.22982 0 6.80827 0 6.36621C0 5.8877 0.0729167 5.4388 0.21875 5.01953C0.364583 4.60026 0.576497 4.23112 0.854492 3.91211C1.13249 3.58854 1.46973 3.33789 1.86621 3.16016C2.26725 2.97786 2.7207 2.88672 3.22656 2.88672C3.76432 2.88672 4.236 2.99154 4.6416 3.20117C5.0472 3.41081 5.389 3.7002 5.66699 4.06934C5.94499 4.43848 6.15462 4.86686 6.2959 5.35449C6.43717 5.84212 6.50781 6.36621 6.50781 6.92676V7.50781C6.50781 8.0957 6.4554 8.66309 6.35059 9.20996C6.24577 9.75228 6.07487 10.2559 5.83789 10.7207C5.60547 11.181 5.29785 11.5866 4.91504 11.9375C4.53678 12.2839 4.07194 12.555 3.52051 12.751C2.97363 12.9424 2.33105 13.0381 1.59277 13.0381H1.44238V11.6777ZM4.7373 5.60059C4.82389 5.90592 4.86719 6.26139 4.86719 6.66699V7.32511C4.77665 7.52856 4.6536 7.71251 4.49805 7.87695C4.33854 8.04557 4.15169 8.18001 3.9375 8.28027C3.72331 8.37598 3.48861 8.42383 3.2334 8.42383C2.96452 8.42383 2.72982 8.36686 2.5293 8.25293C2.32878 8.139 2.16243 7.98405 2.03027 7.78809C1.89811 7.59212 1.79785 7.36882 1.72949 7.11816C1.66569 6.86296 1.63379 6.59863 1.63379 6.3252C1.63379 6.03353 1.66797 5.76009 1.73633 5.50488C1.80924 5.24512 1.91178 5.01953 2.04395 4.82812C2.18066 4.63216 2.34701 4.47949 2.54297 4.37012C2.74349 4.25618 2.96908 4.19922 3.21973 4.19922C3.44759 4.19922 3.65951 4.25163 3.85547 4.35645C4.05599 4.46126 4.23145 4.61849 4.38184 4.82812C4.53678 5.0332 4.65527 5.29069 4.7373 5.60059Z" fill="currentColor"/>
<path fill-rule="evenodd" clip-rule="evenodd" d="M8.72594 11.5137C8.55276 11.6868 8.46617 11.901 8.46617 12.1562C8.46617 12.4115 8.55276 12.6257 8.72594 12.7988C8.89911 12.972 9.13382 13.0586 9.43004 13.0586C9.73082 13.0586 9.96552 12.972 10.1341 12.7988C10.3073 12.6257 10.3939 12.4115 10.3939 12.1562C10.3939 11.901 10.3073 11.6868 10.1341 11.5137C9.96552 11.3359 9.73082 11.2471 9.43004 11.2471C9.13382 11.2471 8.89911 11.3359 8.72594 11.5137Z" fill="currentColor"/>
<path d="M8.47301 6.33203C8.47301 6.07682 8.5596 5.86263 8.73277 5.68945C8.90595 5.51172 9.14065 5.42285 9.43688 5.42285C9.73766 5.42285 9.97236 5.51172 10.141 5.68945C10.3142 5.86263 10.4007 6.07682 10.4007 6.33203C10.4007 6.58724 10.3142 6.80143 10.141 6.97461C9.97236 7.14779 9.73766 7.23438 9.43688 7.23438C9.14065 7.23438 8.90595 7.14779 8.73277 6.97461C8.5596 6.80143 8.47301 6.58724 8.47301 6.33203Z" fill="currentColor"/>
<path d="M14.1159 7.25488H15.1003C15.4831 7.25488 15.7999 7.1888 16.0505 7.05664C16.3057 6.92448 16.4948 6.74219 16.6179 6.50977C16.7409 6.27734 16.8025 6.01074 16.8025 5.70996C16.8025 5.39551 16.7455 5.12663 16.6316 4.90332C16.5222 4.67546 16.3536 4.5 16.1257 4.37695C15.9024 4.25391 15.6176 4.19238 15.2712 4.19238C14.9795 4.19238 14.7152 4.25163 14.4782 4.37012C14.2458 4.48405 14.0612 4.64811 13.9245 4.8623C13.7878 5.07194 13.7195 5.32259 13.7195 5.61426H12.0652C12.0652 5.08561 12.2042 4.61621 12.4821 4.20605C12.7601 3.7959 13.1384 3.47461 13.6169 3.24219C14.1 3.00521 14.6423 2.88672 15.2439 2.88672C15.8864 2.88672 16.447 2.99382 16.9255 3.20801C17.4086 3.41764 17.7846 3.7321 18.0534 4.15137C18.3223 4.57064 18.4568 5.09017 18.4568 5.70996C18.4568 5.99251 18.3907 6.27962 18.2585 6.57129C18.1264 6.86296 17.9304 7.12956 17.6706 7.37109C17.4587 7.56439 17.2044 7.72888 16.9076 7.86456C17.2931 7.99934 17.609 8.1812 17.8552 8.41016C18.115 8.64714 18.3041 8.91829 18.4226 9.22363C18.5456 9.52897 18.6071 9.85254 18.6071 10.1943C18.6071 10.6592 18.5228 11.0739 18.3542 11.4385C18.1902 11.7985 17.9555 12.1038 17.6501 12.3545C17.3448 12.6051 16.987 12.7943 16.5769 12.9219C16.1713 13.0495 15.7292 13.1133 15.2507 13.1133C14.8223 13.1133 14.4122 13.054 14.0202 12.9355C13.6283 12.8171 13.2774 12.6416 12.9675 12.4092C12.6576 12.1722 12.4115 11.8783 12.2292 11.5273C12.0515 11.1719 11.9626 10.7617 11.9626 10.2969H13.6101C13.6101 10.5931 13.6784 10.8551 13.8152 11.083C13.9564 11.3063 14.1524 11.4818 14.403 11.6094C14.6583 11.737 14.9499 11.8008 15.278 11.8008C15.6244 11.8008 15.9229 11.7393 16.1736 11.6162C16.4242 11.4932 16.6156 11.3109 16.7478 11.0693C16.8845 10.8278 16.9529 10.5361 16.9529 10.1943C16.9529 9.80697 16.8777 9.49251 16.7273 9.25098C16.5769 9.00944 16.3627 8.83171 16.0847 8.71777C15.8067 8.59928 15.4786 8.54004 15.1003 8.54004H14.1159V7.25488Z" fill="currentColor"/>
</svg>
