<svg width="54" height="18" viewBox="0 0 54 18" fill="none" xmlns="http://www.w3.org/2000/svg">
<path d="M16.2147 3.16748C18.4705 3.16748 20.4334 4.77148 20.4334 8.58008V8.59473C20.4334 12.1543 18.8294 14.2637 16.1707 14.2637C14.2298 14.2637 12.7796 13.1138 12.4427 11.4951L12.428 11.4146H14.2884L14.3104 11.4878C14.5887 12.2275 15.2405 12.7109 16.1707 12.7109C17.848 12.7109 18.5584 11.0703 18.639 9.04883C18.639 8.96826 18.6463 8.8877 18.6463 8.80713H18.4998C18.1116 9.64209 17.1888 10.3818 15.7386 10.3818C13.7098 10.3818 12.2889 8.90234 12.2889 6.89551V6.88086C12.2889 4.73486 13.9222 3.16748 16.2147 3.16748ZM16.2073 8.93164C17.4012 8.93164 18.3167 8.06738 18.3167 6.87354V6.85889C18.3167 5.65039 17.4012 4.70557 16.2293 4.70557C15.0648 4.70557 14.1346 5.63574 14.1346 6.81494V6.82959C14.1346 8.05273 15.0062 8.93164 16.2073 8.93164Z" fill="currentColor"/>
<path d="M23.4586 7.15186C22.7921 7.15186 22.2941 6.63916 22.2941 5.99463C22.2941 5.34277 22.7921 4.8374 23.4586 4.8374C24.1324 4.8374 24.6232 5.34277 24.6232 5.99463C24.6232 6.63916 24.1324 7.15186 23.4586 7.15186ZM23.4586 12.5864C22.7921 12.5864 22.2941 12.0811 22.2941 11.4292C22.2941 10.7773 22.7921 10.272 23.4586 10.272C24.1324 10.272 24.6232 10.7773 24.6232 11.4292C24.6232 12.0811 24.1324 12.5864 23.4586 12.5864Z" fill="currentColor"/>
<path d="M31.6108 14V11.9712H26.4399V10.4258C27.8095 8.04541 29.3109 5.61377 30.7465 3.43115H33.4198V10.4111H34.8407V11.9712H33.4198V14H31.6108ZM28.1977 10.4551H31.64V4.93994H31.5302C30.4462 6.59521 29.2231 8.55078 28.1977 10.3452V10.4551Z" fill="currentColor"/>
<path d="M38.9206 14V5.2915H38.7961L36.1667 7.15186V5.37207L38.9279 3.43115H40.8103V14H38.9206Z" fill="currentColor"/>
</svg>
